<?xml version="1.0" encoding="iso-8859-1"?>
<!-- Uploaded to: SVG Repo, www.svgrepo.com, Generator: SVG Repo Mixer Tools -->
<svg fill="#000000" version="1.1" id="Layer_1" xmlns="http://www.w3.org/2000/svg" xmlns:xlink="http://www.w3.org/1999/xlink" 
	 viewBox="0 0 512 512" xml:space="preserve">
<g>
	<g>
		<path d="M0,85.42v99.265h19.331v264.359h473.339V184.686H512V85.42H0z M60.082,433.371H35.004V184.686h25.078V433.371z
			 M436.245,433.371H75.755v-42.423l41.862-41.038h276.766l41.862,41.038V433.371z M75.755,369v-19.09h19.473L75.755,369z
			 M436.245,369l-19.473-19.09h19.473V369z M436.245,301.192H169.273v15.673h266.971v17.371H75.755v-17.371h36.049v-15.673H75.755
			V283.82h360.49V301.192z M436.245,268.147H75.755v-17.371h300.408v-15.673H75.755v-17.371h360.49V268.147z M436.245,202.057
			H75.755v-17.371h360.49V202.057z M476.996,433.371h-25.078V184.686h25.078V433.371z M496.327,169.012H15.673v-67.918h480.653
			V169.012z"/>
	</g>
</g>
<g>
	<g>
		<rect x="47.02" y="62.955" width="417.959" height="15.673"/>
	</g>
</g>
<g>
	<g>
		<rect x="132.702" y="301.192" width="15.674" height="15.673"/>
	</g>
</g>
<g>
	<g>
		<rect x="397.061" y="235.102" width="15.673" height="15.673"/>
	</g>
</g>
<g>
	<g>
		<rect x="211.592" y="127.216" width="15.673" height="15.674"/>
	</g>
</g>
<g>
	<g>
		<rect x="284.735" y="127.216" width="15.673" height="15.674"/>
	</g>
</g>
<g>
	<g>
		<rect x="248.163" y="127.216" width="15.673" height="15.674"/>
	</g>
</g>
</svg>